<?xml version="1.0" encoding="UTF-8" standalone="no"?>
<!-- Created with Inkscape (http://www.inkscape.org/) -->

<svg
   xmlns:dc="http://purl.org/dc/elements/1.1/"
   xmlns:cc="http://creativecommons.org/ns#"
   xmlns:rdf="http://www.w3.org/1999/02/22-rdf-syntax-ns#"
   xmlns:svg="http://www.w3.org/2000/svg"
   xmlns="http://www.w3.org/2000/svg"
   xmlns:inkscape="http://www.inkscape.org/namespaces/inkscape"
   version="1.1"
   width="800"
   height="600"
   id="svg2985">
  <defs
     id="defs2987">
    <inkscape:path-effect
       effect="skeletal"
       id="path-effect7787" />
    <linearGradient
       id="linearGradient6435">
      <stop
         id="stop6437"
         style="stop-color:#000000;stop-opacity:1"
         offset="0" />
    </linearGradient>
    <marker
       refX="0"
       refY="0"
       orient="auto"
       id="Arrow1Lstart"
       style="overflow:visible">
      <path
         d="M 0,0 5,-5 -12.5,0 5,5 0,0 z"
         transform="matrix(0.8,0,0,0.8,10,0)"
         id="path3779"
         style="fill-rule:evenodd;stroke:#000000;stroke-width:1pt" />
    </marker>
    <marker
       refX="0"
       refY="0"
       orient="auto"
       id="Tail"
       style="overflow:visible">
      <g
         transform="scale(-1.2,-1.2)"
         id="g3815">
        <path
           d="M -3.8048674,-3.9585227 0.54352094,0"
           id="path3817"
           style="fill:none;stroke:#000000;stroke-width:0.80000001;stroke-linecap:round" />
        <path
           d="M -1.2866832,-3.9585227 3.0617053,0"
           id="path3819"
           style="fill:none;stroke:#000000;stroke-width:0.80000001;stroke-linecap:round" />
        <path
           d="M 1.3053582,-3.9585227 5.6537466,0"
           id="path3821"
           style="fill:none;stroke:#000000;stroke-width:0.80000001;stroke-linecap:round" />
        <path
           d="M -3.8048674,4.1775838 0.54352094,0.21974226"
           id="path3823"
           style="fill:none;stroke:#000000;stroke-width:0.80000001;stroke-linecap:round" />
        <path
           d="M -1.2866832,4.1775838 3.0617053,0.21974226"
           id="path3825"
           style="fill:none;stroke:#000000;stroke-width:0.80000001;stroke-linecap:round" />
        <path
           d="M 1.3053582,4.1775838 5.6537466,0.21974226"
           id="path3827"
           style="fill:none;stroke:#000000;stroke-width:0.80000001;stroke-linecap:round" />
      </g>
    </marker>
    <filter
       x="-0.063961104"
       y="-0.11393073"
       width="1.1279222"
       height="1.2278615"
       color-interpolation-filters="sRGB"
       id="filter3771">
      <feGaussianBlur
         id="feGaussianBlur3773"
         stdDeviation="5.0635875" />
    </filter>
    <filter
       x="-0.063961104"
       y="-0.11393073"
       width="1.1279222"
       height="1.2278615"
       color-interpolation-filters="sRGB"
       id="filter3771-0">
      <feGaussianBlur
         id="feGaussianBlur3773-9"
         stdDeviation="5.0635875" />
    </filter>
    <filter
       x="-0.063961104"
       y="-0.11393073"
       width="1.1279222"
       height="1.2278615"
       color-interpolation-filters="sRGB"
       id="filter3771-0-3">
      <feGaussianBlur
         id="feGaussianBlur3773-9-7"
         stdDeviation="5.0635875" />
    </filter>
    <filter
       x="-0.063961104"
       y="-0.11393073"
       width="1.1279222"
       height="1.2278615"
       color-interpolation-filters="sRGB"
       id="filter3771-0-3-8">
      <feGaussianBlur
         id="feGaussianBlur3773-9-7-2"
         stdDeviation="5.0635875" />
    </filter>
    <filter
       x="-0.063961104"
       y="-0.11393073"
       width="1.1279222"
       height="1.2278615"
       color-interpolation-filters="sRGB"
       id="filter3771-0-3-3">
      <feGaussianBlur
         id="feGaussianBlur3773-9-7-6"
         stdDeviation="5.0635875" />
    </filter>
    <filter
       x="-0.063961104"
       y="-0.11393073"
       width="1.1279222"
       height="1.2278615"
       color-interpolation-filters="sRGB"
       id="filter3771-0-3-4">
      <feGaussianBlur
         id="feGaussianBlur3773-9-7-1"
         stdDeviation="5.0635875" />
    </filter>
    <filter
       x="-0.063961104"
       y="-0.11393073"
       width="1.1279222"
       height="1.2278615"
       color-interpolation-filters="sRGB"
       id="filter3771-0-3-0">
      <feGaussianBlur
         id="feGaussianBlur3773-9-7-65"
         stdDeviation="5.0635875" />
    </filter>
    <filter
       x="-0.063961104"
       y="-0.11393073"
       width="1.1279222"
       height="1.2278615"
       color-interpolation-filters="sRGB"
       id="filter3771-0-3-9">
      <feGaussianBlur
         id="feGaussianBlur3773-9-7-3"
         stdDeviation="5.0635875" />
    </filter>
    <filter
       x="-0.063961104"
       y="-0.11393073"
       width="1.1279222"
       height="1.2278615"
       color-interpolation-filters="sRGB"
       id="filter3771-0-3-5">
      <feGaussianBlur
         id="feGaussianBlur3773-9-7-34"
         stdDeviation="5.0635875" />
    </filter>
    <filter
       x="-0.063961104"
       y="-0.11393073"
       width="1.1279222"
       height="1.2278615"
       color-interpolation-filters="sRGB"
       id="filter3771-0-3-1">
      <feGaussianBlur
         id="feGaussianBlur3773-9-7-9"
         stdDeviation="5.0635875" />
    </filter>
    <filter
       x="-0.063961104"
       y="-0.11393073"
       width="1.1279222"
       height="1.2278615"
       color-interpolation-filters="sRGB"
       id="filter3771-0-3-7">
      <feGaussianBlur
         id="feGaussianBlur3773-9-7-0"
         stdDeviation="5.0635875" />
    </filter>
    <filter
       x="-0.063961104"
       y="-0.11393073"
       width="1.1279222"
       height="1.2278615"
       color-interpolation-filters="sRGB"
       id="filter3771-9">
      <feGaussianBlur
         id="feGaussianBlur3773-3"
         stdDeviation="5.0635875" />
    </filter>
    <filter
       x="-0.063961104"
       y="-0.11393073"
       width="1.1279222"
       height="1.2278615"
       color-interpolation-filters="sRGB"
       id="filter3771-3">
      <feGaussianBlur
         id="feGaussianBlur3773-1"
         stdDeviation="5.0635875" />
    </filter>
    <filter
       x="-0.063961104"
       y="-0.11393073"
       width="1.1279222"
       height="1.2278615"
       color-interpolation-filters="sRGB"
       id="filter3771-97">
      <feGaussianBlur
         id="feGaussianBlur3773-0"
         stdDeviation="5.0635875" />
    </filter>
    <filter
       x="-0.063961104"
       y="-0.11393073"
       width="1.1279222"
       height="1.2278615"
       color-interpolation-filters="sRGB"
       id="filter3771-33">
      <feGaussianBlur
         id="feGaussianBlur3773-5"
         stdDeviation="5.0635875" />
    </filter>
    <filter
       x="-0.063961104"
       y="-0.11393073"
       width="1.1279222"
       height="1.2278615"
       color-interpolation-filters="sRGB"
       id="filter3771-90">
      <feGaussianBlur
         id="feGaussianBlur3773-8"
         stdDeviation="5.0635875" />
    </filter>
    <filter
       x="-0.063961104"
       y="-0.11393073"
       width="1.1279222"
       height="1.2278615"
       color-interpolation-filters="sRGB"
       id="filter3771-95">
      <feGaussianBlur
         id="feGaussianBlur3773-93"
         stdDeviation="5.0635875" />
    </filter>
    <inkscape:path-effect
       effect="skeletal"
       id="path-effect7787-2" />
    <inkscape:path-effect
       effect="skeletal"
       id="path-effect7787-8" />
    <inkscape:path-effect
       effect="skeletal"
       id="path-effect7787-20" />
    <inkscape:path-effect
       effect="skeletal"
       id="path-effect7787-20-1" />
    <inkscape:path-effect
       effect="skeletal"
       id="path-effect7787-20-3" />
    <inkscape:path-effect
       effect="skeletal"
       id="path-effect7787-7" />
    <inkscape:path-effect
       effect="skeletal"
       id="path-effect7787-74" />
    <inkscape:path-effect
       effect="skeletal"
       id="path-effect7787-5" />
    <inkscape:path-effect
       effect="skeletal"
       id="path-effect7787-20-2" />
    <inkscape:path-effect
       effect="skeletal"
       id="path-effect7787-20-4" />
    <inkscape:path-effect
       effect="skeletal"
       id="path-effect7787-20-24" />
    <inkscape:path-effect
       effect="skeletal"
       id="path-effect7787-20-5" />
    <inkscape:path-effect
       effect="skeletal"
       id="path-effect7787-20-6" />
    <inkscape:path-effect
       effect="skeletal"
       id="path-effect7787-20-6-2" />
    <inkscape:path-effect
       effect="skeletal"
       id="path-effect7787-20-6-4" />
    <inkscape:path-effect
       effect="skeletal"
       id="path-effect7787-20-6-1" />
  </defs>
  <metadata
     id="metadata2990">
    <rdf:RDF>
      <cc:Work
         rdf:about="">
        <dc:format>image/svg+xml</dc:format>
        <dc:type
           rdf:resource="http://purl.org/dc/dcmitype/StillImage" />
        <dc:title></dc:title>
      </cc:Work>
    </rdf:RDF>
  </metadata>
  <g
     id="layer1"
     style="display:inline">
    <rect
       width="190"
       height="106.66666"
       x="35"
       y="50"
       transform="matrix(3.1167248,0,0,0.483756,0.07543213,0.74704133)"
       id="rect2993"
       style="fill:#008000;fill-opacity:1;stroke:none;filter:url(#filter3771)" />
    <rect
       width="190"
       height="106.66666"
       x="35"
       y="185"
       transform="matrix(0.74453573,-0.06513818,-0.03302943,0.63024157,400.75056,202.12963)"
       id="rect6441"
       style="fill:#2f00b8;fill-opacity:1;stroke:none;filter:url(#filter3771)" />
    <rect
       width="190"
       height="106.66666"
       x="33.333336"
       y="318.33334"
       transform="matrix(0.74453573,0,0,0.63024157,45.003656,207.17338)"
       id="rect6441-0"
       style="fill:#2f00b8;fill-opacity:1;stroke:none;filter:url(#filter3771-0)" />
    <rect
       width="190"
       height="106.66666"
       x="33.333328"
       y="453.33334"
       transform="matrix(0.74453573,0,0,0.63024157,45.003662,-72.997081)"
       id="rect6441-0-4"
       style="fill:#2f00b8;fill-opacity:1;stroke:none;filter:url(#filter3771-0-3)" />
    <rect
       width="190"
       height="106.66666"
       x="255"
       y="53.33334"
       transform="matrix(0.74453573,-0.03901931,0.03302943,0.63024157,50.999658,387.84416)"
       id="rect6441-0-4-4"
       style="fill:#ff9955;fill-opacity:1;stroke:none;filter:url(#filter3771-0-3-8)" />
    <rect
       width="190"
       height="106.66666"
       x="255.00002"
       y="185"
       transform="matrix(0.74453573,0,0,0.63024157,403.63857,291.20559)"
       id="rect6441-0-4-8"
       style="fill:#2f00b8;fill-opacity:1;stroke:none;filter:url(#filter3771-0-3-3)" />
    <rect
       width="190"
       height="106.66666"
       x="251.66666"
       y="315"
       transform="matrix(0.74453573,0,0,0.63024157,406.12038,111.73027)"
       id="rect6441-0-4-5"
       style="fill:#2f00b8;fill-opacity:1;stroke:none;filter:url(#filter3771-0-3-4)" />
    <rect
       width="190"
       height="106.66666"
       x="250"
       y="451.66669"
       transform="matrix(0.74453573,0,-0.05513878,0.63024157,86.090561,-71.946685)"
       id="rect6441-0-4-2"
       style="fill:#2f00b8;fill-opacity:1;stroke:none;filter:url(#filter3771-0-3-0)" />
    <rect
       width="190"
       height="106.66666"
       x="465"
       y="56.666672"
       transform="matrix(0.74453573,-0.06513818,0.13396145,0.63024157,232.55032,115.93221)"
       id="rect6441-0-4-9"
       style="fill:#2f00b8;fill-opacity:1;stroke:none;filter:url(#filter3771-0-3-9)" />
    <rect
       width="190"
       height="106.66666"
       x="465"
       y="185"
       transform="matrix(0.74453573,0,0,0.63024157,72.728189,291.20559)"
       id="rect6441-0-4-1"
       style="fill:#ff9955;fill-opacity:1;stroke:none;filter:url(#filter3771-0-3-5)" />
    <rect
       width="190"
       height="106.66666"
       x="466.66669"
       y="316.66669"
       transform="matrix(0.74453573,0.06513818,0,0.63024157,-277.62851,74.093902)"
       id="rect6441-0-4-99"
       style="fill:#d45500;fill-opacity:1;stroke:none;filter:url(#filter3771-0-3-1)" />
    <rect
       width="190"
       height="106.66666"
       x="468.33334"
       y="448.33334"
       transform="matrix(0.74453573,0,0,0.63024157,-104.3115,27.698048)"
       id="rect6441-0-4-0"
       style="fill:#2f00b8;fill-opacity:1;stroke:none;filter:url(#filter3771-0-3-7)" />
    <rect
       width="190"
       height="106.66666"
       x="35"
       y="50"
       transform="matrix(-0.74453573,0,-0.13396145,-0.63024157,607.32114,209.82473)"
       id="rect2993-0"
       style="fill:#ff9955;fill-opacity:1;stroke:none;filter:url(#filter3771-9)" />
    <rect
       width="190"
       height="106.66666"
       x="35"
       y="50"
       transform="matrix(-0.74453573,0,-0.05513878,-0.63024157,413.39375,213.90636)"
       id="rect2993-2"
       style="fill:#2f00b8;fill-opacity:1;stroke:none;filter:url(#filter3771-3)" />
    <rect
       width="190"
       height="106.66666"
       x="35"
       y="50"
       transform="matrix(3.1033603,0,0,0.58565412,-3.0561084,490.76953)"
       id="rect2993-7"
       style="fill:#ff0000;fill-opacity:1;stroke:none;filter:url(#filter3771-97)" />
    <rect
       width="190"
       height="106.66666"
       x="35"
       y="50"
       transform="matrix(0.74453573,0,0,0.63024157,567.43644,181.20036)"
       id="rect2993-4"
       style="fill:#d45500;fill-opacity:1;stroke:none;filter:url(#filter3771-33)" />
    <rect
       width="190"
       height="106.66666"
       x="35"
       y="50"
       transform="matrix(0.74453573,0,0,0.63024157,43.762765,83.656437)"
       id="rect2993-03"
       style="fill:#ff9955;fill-opacity:1;stroke:none;filter:url(#filter3771-90)" />
    <rect
       width="190"
       height="106.66666"
       x="35"
       y="50"
       transform="matrix(0.74453573,-0.06513818,0,0.63024157,392.87855,189.66832)"
       id="rect2993-9"
       style="fill:#2f00b8;fill-opacity:1;stroke:none;filter:url(#filter3771-95)" />
    <path
       d="m 213.31583,145.54619 c -0.23986,5.28409 -0.30104,10.67274 -0.18355,16.16594 2.90904,-1.41418 5.88197,-2.75504 8.91878,-4.02258 0,0 0,0 0,0 1.69643,0.34646 3.37291,0.69815 5.02945,1.05504 0,1e-5 0,1e-5 0,1e-5 1.41718,-0.15906 2.80253,-0.35463 4.15606,-0.58674 0,0 0,0 0,0 0.13436,3.78241 0.33903,7.52868 0.61402,11.2388 3.92554,-4.74532 8.08447,-9.56555 12.47679,-14.46069 -3.83527,-4.68869 -7.89347,-9.44894 -12.17461,-14.28074 -0.50849,2.70148 -1.07228,5.37453 -1.69137,8.01916 -2.50675,-0.66339 -4.89577,-1.39435 -7.16706,-2.19288 -2.52449,-1.76143 -5.00994,-3.51229 -7.45634,-5.25257 l -5.04434,8.6345 c 3.44332,1.70052 6.84758,3.39047 10.2128,5.06985 4.62472,-0.79853 9.1317,-1.52949 13.52096,-2.19288 -0.61909,-3.3472 -1.18288,-6.66597 -1.69137,-9.95632 0,0 0,0 0,0 2.02428,3.97907 4.2715,8.0297 6.74165,12.15188 -2.20857,4.32863 -4.65054,8.73217 -7.32589,13.21061 0.27499,-3.9088 0.47966,-7.78146 0.61402,-11.61797 0,-10e-6 0,-10e-6 0,-10e-6 -1.89597,-0.23211 -3.76011,-0.42768 -5.59242,-0.58674 -1e-5,0 -1e-5,0 -1e-5,0 -1.89759,-0.13464 -3.77523,-0.27449 -5.63293,-0.41957 0,0 0,0 -1e-5,0 -2.64981,1.92749 -5.3635,3.78166 -8.14108,5.5625 0.11749,-5.07498 0.0563,-10.25451 -0.18355,-15.5386 z"
       id="path7785"
       style="fill:#000000;fill-rule:evenodd;stroke:none" />
    <path
       d="m 391.75531,143.52024 c -0.23986,5.28409 -0.30104,10.67274 -0.18355,16.16594 2.90904,-1.41418 5.88197,-2.75504 8.91878,-4.02258 0,0 0,0 0,0 1.69643,0.34646 3.37291,0.69815 5.02945,1.05504 0,1e-5 0,1e-5 0,1e-5 1.41718,-0.15906 2.80253,-0.35463 4.15606,-0.58674 0,0 0,0 0,0 0.13436,3.78241 0.33903,7.52868 0.61402,11.2388 3.92554,-4.74532 8.08447,-9.56555 12.47679,-14.46069 -3.83526,-4.68869 -7.89346,-9.44893 -12.1746,-14.28073 -1e-5,-1e-5 -1e-5,-1e-5 -1e-5,-1e-5 -0.50849,2.70148 -1.07228,5.37453 -1.69137,8.01916 -2.50675,-0.66339 -4.89577,-1.39435 -7.16706,-2.19288 -2.52449,-1.76143 -5.00994,-3.51229 -7.45634,-5.25257 l -5.04434,8.6345 c 3.44332,1.70052 6.84758,3.39047 10.2128,5.06985 4.62472,-0.79853 9.1317,-1.52949 13.52096,-2.19288 -0.61909,-3.3472 -1.18288,-6.66597 -1.69137,-9.95632 2.02428,3.97907 4.2715,8.0297 6.74165,12.15188 -2.20857,4.32863 -4.65054,8.73217 -7.32589,13.21061 0.27499,-3.9088 0.47966,-7.78146 0.61402,-11.61797 0,-1e-5 0,-1e-5 0,-1e-5 -1.89597,-0.23211 -3.76011,-0.42768 -5.59242,-0.58674 -1e-5,0 -1e-5,0 -1e-5,0 -1.89759,-0.13464 -3.77523,-0.27449 -5.63293,-0.41957 0,0 0,0 -10e-6,0 -2.64981,1.92749 -5.3635,3.78166 -8.14108,5.5625 0.11749,-5.07498 0.0563,-10.25451 -0.18355,-15.5386 z"
       id="path7785-5"
       style="fill:#000000;fill-rule:evenodd;stroke:none" />
    <path
       d="m 560.08864,143.85358 c -0.23986,5.28409 -0.30104,10.67273 -0.18355,16.16593 2.90904,-1.41418 5.88197,-2.75504 8.91878,-4.02258 0,0 0,0 0,0 1.69643,0.34646 3.37291,0.69815 5.02945,1.05504 0,10e-6 0,10e-6 0,10e-6 1.41718,-0.15906 2.80253,-0.35463 4.15606,-0.58674 0,0 0,0 0,0 0.13436,3.78241 0.33903,7.52868 0.61402,11.2388 3.92554,-4.74532 8.08447,-9.56555 12.47679,-14.46069 -3.83526,-4.68869 -7.89346,-9.44893 -12.1746,-14.28072 -1e-5,-1e-5 -1e-5,-1e-5 -1e-5,-1e-5 -0.50849,2.70148 -1.07228,5.37453 -1.69137,8.01915 -2.50675,-0.66339 -4.89577,-1.39435 -7.16706,-2.19288 -2.5245,-1.76143 -5.00994,-3.51228 -7.45635,-5.25257 l -5.04432,8.63452 c 3.44331,1.70051 6.84757,3.39046 10.21279,5.06983 4.62472,-0.79853 9.1317,-1.52949 13.52096,-2.19288 -0.61909,-3.3472 -1.18288,-6.66597 -1.69137,-9.95631 0,0 0,0 0,0 2.02428,3.97907 4.2715,8.02969 6.74165,12.15187 -2.20857,4.32863 -4.65054,8.73217 -7.32589,13.21061 0.27499,-3.9088 0.47966,-7.78146 0.61402,-11.61797 0,-1e-5 0,-1e-5 0,-1e-5 -1.89597,-0.23211 -3.76011,-0.42768 -5.59242,-0.58674 -10e-6,0 -10e-6,0 -10e-6,0 -1.89759,-0.13464 -3.77523,-0.27449 -5.63293,-0.41957 0,0 0,0 -10e-6,0 -2.64981,1.92749 -5.3635,3.78166 -8.14108,5.5625 0.11749,-5.07497 0.0563,-10.2545 -0.18355,-15.53859 z"
       id="path7785-1"
       style="fill:#000000;fill-rule:evenodd;stroke:none" />
    <path
       d="m 590.82966,253.53569 c -0.10344,-5.28852 -0.39196,-10.66978 -0.86556,-16.14379 -2.81118,1.59992 -5.69086,3.13082 -8.63904,4.59269 0,0 0,0 -10e-6,0 -1.71533,-0.23568 -3.41109,-0.47786 -5.0873,-0.72654 0,0 0,0 0,0 -1.40387,0.25065 -2.77362,0.53569 -4.10924,0.85512 0,0 0,0 0,0 -0.37945,-3.76573 -0.82673,-7.49083 -1.34182,-11.1753 -3.60943,4.98999 -7.44689,10.06987 -11.51239,15.23964 4.13135,4.43001 8.48981,8.91696 13.07539,13.46085 0,0 0,0 0,0 0.33217,-2.72877 0.72137,-5.43277 1.16758,-8.11199 2.54451,0.49937 4.97592,1.07381 7.29422,1.72331 2.63345,1.59395 5.22725,3.17987 7.78139,4.75779 l 4.47356,-8.94356 c -3.54638,-1.47356 -7.0531,-2.9391 -10.52017,-4.39663 -4.56318,1.09687 -9.01325,2.11867 -13.35022,3.06541 0.83492,3.29999 1.61282,6.5752 2.3337,9.82563 0,-10e-6 0,-10e-6 0,-10e-6 -2.27815,-3.83937 -4.78341,-7.73567 -7.51579,-11.68892 1.92311,-4.46279 4.07426,-9.01547 6.45345,-13.65804 -0.0208,3.9184 0.0262,7.79618 0.14098,11.63333 0,1e-5 0,1e-5 0,1e-5 1.90702,0.10862 3.77992,0.18285 5.6187,0.2227 0,0 0,0 0,0 1.90233,0.0113 3.78509,0.029 5.64829,0.0533 0,0 0,0 0,0 2.51919,-2.09533 5.10689,-4.12163 7.76308,-6.07891 0.21199,5.0719 0.60905,10.23655 1.1912,15.49395 z"
       id="path7785-3"
       style="fill:#000000;fill-rule:evenodd;stroke:none" />
    <path
       d="m 419.65929,256.5809 c -0.10344,-5.28852 -0.39196,-10.66978 -0.86556,-16.14379 -2.81118,1.59992 -5.69086,3.13082 -8.63904,4.59269 -1.71533,-0.23568 -3.4111,-0.47786 -5.08731,-0.72654 0,0 0,0 0,0 -1.40387,0.25065 -2.77362,0.53569 -4.10924,0.85512 0,0 0,0 0,0 -0.37945,-3.76573 -0.82673,-7.49083 -1.34182,-11.1753 -3.60943,4.98999 -7.44689,10.06987 -11.51239,15.23964 4.13135,4.43001 8.48981,8.91696 13.07539,13.46085 0,0 0,0 0,0 0.33217,-2.72877 0.72137,-5.43277 1.16758,-8.11199 2.54451,0.49937 4.97592,1.07381 7.29422,1.72331 2.63345,1.59395 5.22725,3.17988 7.78139,4.75779 l 4.47356,-8.94356 c -3.54638,-1.47356 -7.0531,-2.9391 -10.52017,-4.39663 -4.56318,1.09687 -9.01325,2.11867 -13.35022,3.06541 0.83492,3.29999 1.61282,6.5752 2.3337,9.82563 0,-10e-6 0,-10e-6 0,-10e-6 -2.27815,-3.83937 -4.78341,-7.73567 -7.51579,-11.68892 1.92311,-4.46279 4.07426,-9.01547 6.45345,-13.65804 -0.0208,3.91841 0.0262,7.79618 0.14098,11.63333 0,1e-5 0,1e-5 0,1e-5 1.90702,0.10862 3.77992,0.18285 5.6187,0.2227 0,0 0,0 0,0 1.90233,0.0113 3.78509,0.029 5.64829,0.0533 0,0 0,0 0,0 2.51919,-2.09533 5.10689,-4.12163 7.76308,-6.07891 0.21199,5.0719 0.60905,10.23655 1.1912,15.49395 z"
       id="path7785-3-4"
       style="fill:#000000;fill-rule:evenodd;stroke:none" />
    <path
       d="m 241.32596,251.5809 c -0.10344,-5.28852 -0.39196,-10.66978 -0.86556,-16.14379 -2.81118,1.59992 -5.69086,3.13082 -8.63904,4.59269 0,0 0,0 -1e-5,0 -1.71533,-0.23568 -3.41109,-0.47786 -5.0873,-0.72654 0,0 0,0 0,0 -1.40387,0.25065 -2.77362,0.53569 -4.10924,0.85512 0,0 0,0 0,0 -0.37945,-3.76573 -0.82673,-7.49083 -1.34182,-11.1753 -3.60943,4.98999 -7.44689,10.06987 -11.51239,15.23964 4.13135,4.43001 8.48981,8.91696 13.07539,13.46085 0,0 0,0 0,0 0.33217,-2.72877 0.72137,-5.43277 1.16758,-8.11199 2.54451,0.49937 4.97592,1.07381 7.29422,1.72331 2.63345,1.59395 5.22725,3.17988 7.78139,4.75779 l 4.47356,-8.94356 c -3.54638,-1.47356 -7.0531,-2.9391 -10.52017,-4.39663 -4.56318,1.09687 -9.01325,2.11867 -13.35022,3.06541 0.83492,3.29999 1.61282,6.5752 2.3337,9.82563 0,-1e-5 0,-1e-5 0,-1e-5 -2.27815,-3.83937 -4.78341,-7.73567 -7.51579,-11.68892 1.92311,-4.46279 4.07426,-9.01547 6.45345,-13.65804 -0.0208,3.91841 0.0262,7.79618 0.14098,11.63333 0,1e-5 0,1e-5 0,1e-5 1.90702,0.10862 3.77992,0.18285 5.6187,0.2227 0,0 0,0 0,0 1.90233,0.0113 3.78509,0.029 5.64829,0.0533 0,0 0,0 0,0 2.51919,-2.09533 5.10689,-4.12163 7.76308,-6.07891 0.21199,5.0719 0.60905,10.23655 1.1912,15.49395 z"
       id="path7785-3-6"
       style="fill:#000000;fill-rule:evenodd;stroke:none" />
    <path
       d="m 212.42198,340.52025 c -0.23986,5.28409 -0.30104,10.67273 -0.18355,16.16593 2.90904,-1.41418 5.88197,-2.75504 8.91878,-4.02258 0,0 0,0 0,0 1.69643,0.34646 3.37291,0.69815 5.02945,1.05504 0,1e-5 0,1e-5 0,1e-5 1.41718,-0.15906 2.80253,-0.35463 4.15606,-0.58674 0,0 0,0 0,0 0.13436,3.78241 0.33903,7.52868 0.61402,11.2388 3.92554,-4.74532 8.08447,-9.56555 12.47679,-14.46069 -3.83526,-4.68869 -7.89346,-9.44893 -12.1746,-14.28072 -1e-5,-10e-6 -1e-5,-10e-6 -1e-5,-10e-6 -0.50849,2.70148 -1.07228,5.37453 -1.69137,8.01915 -2.50675,-0.66339 -4.89577,-1.39435 -7.16706,-2.19288 -2.5245,-1.76143 -5.00994,-3.51228 -7.45635,-5.25257 l -5.04432,8.63452 c 3.44331,1.70051 6.84757,3.39046 10.21279,5.06983 4.62472,-0.79853 9.1317,-1.52949 13.52096,-2.19288 -0.61909,-3.3472 -1.18288,-6.66597 -1.69137,-9.95631 0,0 0,0 0,0 2.02428,3.97907 4.2715,8.02969 6.74165,12.15187 -2.20857,4.32863 -4.65054,8.73217 -7.32589,13.21061 0.27499,-3.9088 0.47966,-7.78146 0.61402,-11.61797 0,-10e-6 0,-10e-6 0,-10e-6 -1.89597,-0.23211 -3.76011,-0.42768 -5.59242,-0.58674 -1e-5,0 -1e-5,0 -1e-5,0 -1.89759,-0.13464 -3.77523,-0.27449 -5.63293,-0.41957 0,0 0,0 -1e-5,0 -2.64981,1.92749 -5.3635,3.78166 -8.14108,5.5625 0.11749,-5.07497 0.0563,-10.2545 -0.18355,-15.53859 z"
       id="path7785-7"
       style="fill:#000000;fill-rule:evenodd;stroke:none" />
    <path
       d="m 385.75531,333.85358 c -0.23986,5.28409 -0.30104,10.67274 -0.18355,16.16594 2.90904,-1.41418 5.88197,-2.75504 8.91878,-4.02258 0,0 0,0 0,0 1.69643,0.34647 3.37291,0.69815 5.02945,1.05504 0,10e-6 0,10e-6 0,10e-6 1.41718,-0.15906 2.80253,-0.35463 4.15606,-0.58674 0,0 0,0 0,0 0.13436,3.78241 0.33903,7.52868 0.61402,11.2388 3.92554,-4.74532 8.08447,-9.56555 12.47679,-14.46069 -3.83526,-4.68869 -7.89346,-9.44893 -12.1746,-14.28073 -1e-5,-10e-6 -1e-5,-10e-6 -1e-5,-10e-6 -0.50849,2.70148 -1.07228,5.37453 -1.69137,8.01916 -2.50675,-0.66339 -4.89577,-1.39435 -7.16706,-2.19288 -2.52449,-1.76143 -5.00994,-3.51229 -7.45634,-5.25257 l -5.04434,8.6345 c 3.44332,1.70052 6.84758,3.39047 10.2128,5.06985 4.62472,-0.79853 9.1317,-1.52949 13.52096,-2.19288 -0.61909,-3.3472 -1.18288,-6.66597 -1.69137,-9.95632 2.02428,3.97907 4.2715,8.0297 6.74165,12.15188 -2.20857,4.32863 -4.65054,8.73217 -7.32589,13.21061 0.27499,-3.9088 0.47966,-7.78146 0.61402,-11.61797 0,-1e-5 0,-1e-5 0,-1e-5 -1.89597,-0.23211 -3.76011,-0.42768 -5.59242,-0.58674 -1e-5,0 -1e-5,0 -1e-5,0 -1.89759,-0.13464 -3.77523,-0.27449 -5.63293,-0.41957 0,0 0,0 -10e-6,0 -2.64981,1.92749 -5.3635,3.78166 -8.14108,5.5625 0.11749,-5.07498 0.0563,-10.25451 -0.18355,-15.5386 z"
       id="path7785-9"
       style="fill:#000000;fill-rule:evenodd;stroke:none" />
    <path
       d="m 565.75531,333.85358 c -0.23986,5.28409 -0.30104,10.67274 -0.18355,16.16594 2.90904,-1.41418 5.88197,-2.75504 8.91878,-4.02258 1.69643,0.34646 3.37291,0.69814 5.02945,1.05504 0,0 0,10e-6 0,10e-6 1.41718,-0.15906 2.80253,-0.35463 4.15606,-0.58674 0,0 0,0 0,0 0.13436,3.78241 0.33903,7.52868 0.61402,11.2388 3.92554,-4.74532 8.08447,-9.56555 12.47679,-14.46069 -3.83526,-4.68869 -7.89346,-9.44893 -12.1746,-14.28073 -10e-6,-10e-6 -10e-6,-10e-6 -10e-6,-10e-6 -0.50849,2.70148 -1.07228,5.37453 -1.69137,8.01916 -2.50675,-0.66339 -4.89577,-1.39435 -7.16706,-2.19288 -2.52449,-1.76143 -5.00994,-3.51229 -7.45634,-5.25257 l -5.04434,8.6345 c 3.44332,1.70052 6.84758,3.39047 10.2128,5.06985 4.62472,-0.79853 9.1317,-1.52949 13.52096,-2.19288 -0.61909,-3.3472 -1.18288,-6.66597 -1.69137,-9.95632 2.02428,3.97907 4.2715,8.0297 6.74165,12.15188 -2.20857,4.32863 -4.65054,8.73217 -7.32589,13.21061 0.27499,-3.9088 0.47966,-7.78146 0.61402,-11.61797 0,-1e-5 0,-1e-5 0,-1e-5 -1.89597,-0.23211 -3.76011,-0.42768 -5.59242,-0.58674 -10e-6,0 -10e-6,0 -10e-6,0 -1.89759,-0.13464 -3.77523,-0.27449 -5.63293,-0.41957 0,0 0,0 -1e-5,0 -2.64981,1.92749 -5.3635,3.78166 -8.14108,5.5625 0.11749,-5.07498 0.0563,-10.25451 -0.18355,-15.5386 z"
       id="path7785-8"
       style="fill:#000000;fill-rule:evenodd;stroke:none" />
    <path
       d="m 591.32596,449.91424 c -0.10344,-5.28852 -0.39196,-10.66978 -0.86556,-16.14379 -2.81118,1.59992 -5.69086,3.13082 -8.63904,4.59269 0,0 0,0 -10e-6,0 -1.71533,-0.23568 -3.41109,-0.47786 -5.0873,-0.72654 0,0 0,0 0,0 -1.40387,0.25065 -2.77362,0.53569 -4.10924,0.85512 0,0 0,0 0,0 -0.37945,-3.76573 -0.82673,-7.49083 -1.34182,-11.1753 -3.60943,4.98999 -7.44689,10.06987 -11.51239,15.23964 4.13135,4.43001 8.48981,8.91696 13.07539,13.46085 0,0 0,0 0,0 0.33217,-2.72877 0.72137,-5.43277 1.16758,-8.11199 2.54451,0.49937 4.97592,1.07381 7.29422,1.72331 2.63345,1.59395 5.22725,3.17988 7.78139,4.75779 l 4.47356,-8.94356 c -3.54638,-1.47356 -7.0531,-2.9391 -10.52017,-4.39663 -4.56318,1.09687 -9.01325,2.11867 -13.35022,3.06541 0.83492,3.29999 1.61282,6.5752 2.3337,9.82563 0,-10e-6 0,-10e-6 0,-10e-6 -2.27815,-3.83937 -4.78341,-7.73567 -7.51579,-11.68892 1.92311,-4.46279 4.07426,-9.01547 6.45345,-13.65804 -0.0208,3.91841 0.0262,7.79618 0.14098,11.63333 0,10e-6 0,10e-6 0,10e-6 1.90702,0.10862 3.77992,0.18285 5.6187,0.2227 0,0 0,0 0,0 1.90233,0.0113 3.78509,0.029 5.64829,0.0533 0,0 0,0 0,0 2.51919,-2.09533 5.10689,-4.12163 7.76308,-6.07891 0.21199,5.0719 0.60905,10.23655 1.1912,15.49395 z"
       id="path7785-3-0"
       style="fill:#000000;fill-rule:evenodd;stroke:none" />
    <path
       d="m 414.65929,441.5809 c -0.10344,-5.28852 -0.39196,-10.66978 -0.86556,-16.14379 -2.81118,1.59992 -5.69086,3.13082 -8.63904,4.59269 -1.71533,-0.23568 -3.4111,-0.47786 -5.08731,-0.72654 0,0 0,0 0,0 -1.40387,0.25065 -2.77362,0.53569 -4.10924,0.85512 0,0 0,0 0,0 -0.37945,-3.76573 -0.82673,-7.49083 -1.34182,-11.1753 -3.60943,4.98999 -7.44689,10.06987 -11.51239,15.23964 4.13135,4.43001 8.48981,8.91696 13.07539,13.46085 0,0 0,0 0,0 0.33217,-2.72877 0.72137,-5.43277 1.16758,-8.11199 2.54451,0.49937 4.97592,1.07381 7.29422,1.72331 2.63345,1.59395 5.22725,3.17988 7.78139,4.75779 l 4.47356,-8.94356 c -3.54638,-1.47356 -7.0531,-2.9391 -10.52017,-4.39663 -4.56318,1.09687 -9.01325,2.11867 -13.35022,3.06541 0.83492,3.29999 1.61282,6.5752 2.3337,9.82563 0,-10e-6 0,-10e-6 0,-10e-6 -2.27815,-3.83937 -4.78341,-7.73567 -7.51579,-11.68892 1.92311,-4.46279 4.07426,-9.01547 6.45345,-13.65804 -0.0208,3.91841 0.0262,7.79618 0.14098,11.63333 0,1e-5 0,1e-5 0,1e-5 1.90702,0.10862 3.77992,0.18285 5.6187,0.2227 0,0 0,0 0,0 1.90233,0.0113 3.78509,0.029 5.64829,0.0533 0,0 0,0 0,0 2.51919,-2.09533 5.10689,-4.12163 7.76308,-6.07891 0.21199,5.0719 0.60905,10.23655 1.1912,15.49395 z"
       id="path7785-3-3"
       style="fill:#000000;fill-rule:evenodd;stroke:none" />
    <path
       d="m 244.65929,451.5809 c -0.10344,-5.28852 -0.39196,-10.66978 -0.86556,-16.14379 -2.81118,1.59992 -5.69086,3.13082 -8.63904,4.59269 0,0 0,0 -10e-6,0 -1.71533,-0.23568 -3.41109,-0.47786 -5.0873,-0.72654 0,0 0,0 0,0 -1.40387,0.25065 -2.77362,0.53569 -4.10924,0.85512 0,0 0,0 0,0 -0.37945,-3.76573 -0.82673,-7.49083 -1.34182,-11.1753 -3.60943,4.98999 -7.44689,10.06987 -11.51239,15.23964 4.13135,4.43001 8.48981,8.91696 13.07539,13.46085 0,0 0,0 0,0 0.33217,-2.72877 0.72137,-5.43277 1.16758,-8.11199 2.54451,0.49937 4.97592,1.07381 7.29422,1.72331 2.63345,1.59395 5.22725,3.17988 7.78139,4.75779 l 4.47356,-8.94356 c -3.54638,-1.47356 -7.0531,-2.9391 -10.52017,-4.39663 -4.56318,1.09687 -9.01325,2.11867 -13.35022,3.06541 0.83492,3.29999 1.61282,6.5752 2.3337,9.82563 -2.27815,-3.83937 -4.78341,-7.73568 -7.51579,-11.68893 1.92311,-4.46279 4.07426,-9.01547 6.45345,-13.65804 -0.0208,3.91841 0.0262,7.79618 0.14098,11.63333 0,1e-5 0,1e-5 0,1e-5 1.90702,0.10862 3.77992,0.18285 5.6187,0.2227 0,0 0,0 0,0 1.90233,0.0113 3.78509,0.029 5.64829,0.0533 0,0 0,0 0,0 2.51919,-2.09533 5.10689,-4.12163 7.76308,-6.07891 0.21199,5.0719 0.60905,10.23655 1.1912,15.49395 z"
       id="path7785-3-67"
       style="fill:#000000;fill-rule:evenodd;stroke:none" />
    <path
       d="m 165.15003,78.809221 c -5.28949,0.01797 -10.67471,0.219501 -16.15565,0.604589 1.55428,2.836663 3.03844,5.740705 4.45248,8.712124 -0.26336,1.7113 -0.53291,3.402933 -0.80864,5.0749 0,10e-7 0,2e-6 0,2e-6 0.22793,1.407739 0.4908,2.781912 0.7886,4.122518 -3.77136,0.318557 -7.5032,0.705581 -11.19551,1.161071 4.93101,3.689585 9.94822,7.608635 15.05162,11.757135 4.49619,-4.05922 9.05298,-8.34461 13.67037,-12.856168 0,-2e-6 0,-3e-6 0,-5e-6 -2.72305,-0.37622 -5.42041,-0.809055 -8.09207,-1.298506 0.54042,-2.536107 1.15408,-4.957915 1.84096,-7.265424 1.63628,-2.607347 3.26392,-5.175178 4.88289,-7.703493 l -8.8701,-4.617486 c -1.53067,3.522102 -3.05269,7.004687 -4.56605,10.447757 1.023,4.580301 1.97276,9.046303 2.8493,13.398005 3.31304,-0.78149 6.60039,-1.506366 9.86205,-2.174627 0,1e-6 -10e-6,1e-6 -10e-6,2e-6 -3.87567,2.215815 -7.81196,4.657785 -11.80884,7.325925 -4.43113,-1.99497 -8.94846,-4.21941 -13.55198,-6.673297 3.91757,0.08414 7.7956,0.09981 11.63411,0.04702 0.13942,-1.905024 0.24391,-3.776481 0.31346,-5.614372 0,-2e-6 0,-4e-6 0,-6e-6 0.042,-1.901895 0.0902,-3.784123 0.14452,-5.646685 0,-1e-6 0,-3e-6 0,-5e-6 -2.05435,-2.552719 -4.03857,-5.172817 -5.95268,-7.860292 5.07467,-0.130003 10.24506,-0.443564 15.51117,-0.940683 z"
       id="path7785-3-1"
       style="fill:#000000;fill-rule:evenodd;stroke:none" />
    <path
       d="m 705.16486,182.96298 c -5.25531,0.60064 -10.58555,1.39426 -15.9907,2.38087 1.85736,2.64815 3.65244,5.37099 5.38525,8.16852 0,1e-5 0,1e-5 0,1e-5 -0.0732,1.72989 -0.15475,3.44092 -0.2446,5.13309 0,0 0,0 0,0 0.38165,1.37406 0.79432,2.71091 1.23801,4.01055 0,0 0,0 0,0 -3.71331,0.73213 -7.37979,1.52795 -10.99944,2.38746 5.3075,3.12385 10.72594,6.46627 16.25534,10.02725 4.02159,-4.52989 8.07849,-9.29124 12.17071,-14.28405 -2.74792,-0.0739 -5.47655,-0.20693 -8.18587,-0.39905 0.25772,-2.58021 0.60081,-5.05488 1.02928,-7.42402 1.33906,-2.77175 2.67388,-5.50328 4.00444,-8.19458 l -9.32484,-3.6121 c -1.1333,3.6693 -2.26236,7.29837 -3.38716,10.88722 1.5214,4.43971 2.95743,8.77388 4.30808,13.00252 3.20677,-1.14175 6.39424,-2.2244 9.56241,-3.24795 -3.60795,2.62933 -7.25123,5.49012 -10.92981,8.58237 -4.62396,-1.49463 -9.35886,-3.20782 -14.20472,-5.13957 3.90298,-0.34799 7.75914,-0.75968 11.56846,-1.23506 0,0 0,0 0,0 -0.0713,-1.90879 -0.17365,-3.78036 -0.30701,-5.61473 0,0 0,-1e-5 0,-1e-5 -0.16781,-1.89494 -0.3273,-3.77102 -0.47848,-5.62823 0,0 0,0 0,0 -2.32309,-2.31084 -4.58391,-4.69637 -6.78245,-7.1566 5.02945,-0.68832 10.13381,-1.56962 15.3131,-2.64391 z"
       id="path7785-3-9"
       style="fill:#000000;fill-rule:evenodd;stroke:none" />
    <path
       d="m 202.73179,282.84915 c -5.25531,0.60064 -10.58555,1.39426 -15.9907,2.38087 1.85736,2.64815 3.65244,5.37099 5.38525,8.16852 0,10e-6 0,10e-6 0,10e-6 -0.0732,1.72989 -0.15475,3.44092 -0.2446,5.13309 0,0 0,0 0,0 0.38165,1.37406 0.79432,2.71091 1.23801,4.01055 0,0 0,0 0,0 -3.71331,0.73213 -7.37979,1.52795 -10.99944,2.38746 5.3075,3.12385 10.72594,6.46627 16.25534,10.02725 4.02159,-4.52989 8.07849,-9.29124 12.17071,-14.28405 -2.74792,-0.0739 -5.47655,-0.20693 -8.18587,-0.39905 0.25772,-2.58021 0.60081,-5.05488 1.02928,-7.42402 1.33906,-2.77175 2.67388,-5.50328 4.00444,-8.19458 l -9.32484,-3.6121 c -1.1333,3.6693 -2.26236,7.29837 -3.38716,10.88722 1.5214,4.43971 2.95743,8.77388 4.30808,13.00252 3.20677,-1.14175 6.39424,-2.2244 9.56241,-3.24795 0,0 0,0 0,0 -3.60796,2.62933 -7.25123,5.49012 -10.92981,8.58237 -4.62396,-1.49463 -9.35886,-3.20782 -14.20472,-5.13957 3.90299,-0.34799 7.75914,-0.75968 11.56846,-1.23506 -0.0713,-1.90879 -0.17365,-3.78036 -0.30701,-5.61473 0,0 0,-10e-6 0,-10e-6 -0.16781,-1.89494 -0.3273,-3.77102 -0.47848,-5.62823 0,0 0,0 0,0 -2.32309,-2.31084 -4.58391,-4.69637 -6.78245,-7.1566 5.02945,-0.68832 10.13381,-1.56962 15.3131,-2.64391 z"
       id="path7785-3-9-0"
       style="fill:#000000;fill-rule:evenodd;stroke:none" />
    <path
       d="m 661.39846,378.51582 c -5.25531,0.60064 -10.58555,1.39426 -15.9907,2.38087 1.85736,2.64815 3.65244,5.37099 5.38525,8.16852 0,1e-5 0,1e-5 0,1e-5 -0.0732,1.72989 -0.15475,3.44092 -0.2446,5.13309 0,0 0,0 0,0 0.38165,1.37406 0.79432,2.71091 1.23801,4.01055 -3.71331,0.73213 -7.37979,1.52795 -10.99944,2.38746 5.3075,3.12385 10.72594,6.46627 16.25534,10.02725 4.02159,-4.52989 8.07849,-9.29123 12.17071,-14.28404 0,-1e-5 0,-1e-5 0,-1e-5 -2.74792,-0.0739 -5.47655,-0.20693 -8.18587,-0.39905 0.25772,-2.58021 0.60081,-5.05488 1.02928,-7.42402 1.33906,-2.77175 2.67388,-5.50328 4.00444,-8.19458 l -9.32484,-3.6121 c -1.1333,3.6693 -2.26236,7.29837 -3.38716,10.88722 1.5214,4.43971 2.95743,8.77388 4.30808,13.00252 3.20677,-1.14175 6.39424,-2.2244 9.56241,-3.24795 0,0 0,0 0,0 -3.60796,2.62933 -7.25123,5.49012 -10.92981,8.58237 -4.62396,-1.49463 -9.35886,-3.20782 -14.20472,-5.13957 3.90298,-0.34799 7.75914,-0.75968 11.56846,-1.23506 0,0 0,0 0,0 -0.0713,-1.90879 -0.17365,-3.78036 -0.30701,-5.61473 -0.16781,-1.89495 -0.3273,-3.77102 -0.47848,-5.62824 0,0 0,0 0,0 -2.32309,-2.31084 -4.58391,-4.69637 -6.78245,-7.1566 5.02945,-0.68832 10.13381,-1.56962 15.3131,-2.64391 z"
       id="path7785-3-9-3"
       style="fill:#000000;fill-rule:evenodd;stroke:none" />
    <path
       d="m 154.20739,482.43308 c -4.79034,4.37288 -9.49051,8.97905 -14.10052,13.81848 3.25455,0.35233 6.50503,0.79946 9.75143,1.3414 0,0 10e-6,0 10e-6,0 0.84392,1.17562 1.66923,2.34429 2.47593,3.50601 0,0 0,0 0,0 1.07281,0.59152 2.14734,1.14293 3.22359,1.65421 0,0 0,0 0,0 -3.18901,3.34224 -6.28397,6.70016 -9.28488,10.07376 6.80424,-1.81161 13.84029,-3.48295 21.10816,-5.014 1.32967,-6.18744 2.53337,-12.5753 3.61108,-19.16356 0,-1e-5 0,-1e-5 0,-1e-5 -2.79697,1.88021 -5.61979,3.67693 -8.46845,5.39017 -1.1465,-1.5585 -2.18679,-3.08249 -3.12086,-4.57195 -0.1105,-2.65188 -0.19706,-5.26291 -0.25968,-7.8331 l -9.87162,1.59718 c 0.93045,3.56765 1.83697,7.09445 2.71954,10.5804 3.7342,2.21536 7.36218,4.3962 10.88394,6.54253 2.36508,-3.46504 4.756,-6.8466 7.17277,-10.14467 0,0 0,0 0,0 -2.32053,4.41384 -4.51507,9.02809 -6.58364,13.84275 -5.22662,2.89408 -10.68506,5.64787 -16.37532,8.26138 3.62865,-3.21087 7.16325,-6.43741 10.6038,-9.67964 -1.12351,-1.23448 -2.24874,-2.42885 -3.37569,-3.58309 0,0 0,0 -1e-5,-1e-5 -1.17156,-1.17251 -2.32451,-2.33807 -3.45885,-3.49667 0,0 0,0 0,-10e-6 -3.3833,0.24806 -6.76252,0.40131 -10.13767,0.45976 4.58581,-4.29383 9.08146,-8.82094 13.48694,-13.58132 z"
       id="path7785-3-9-8"
       style="fill:#000000;fill-rule:evenodd;stroke:none" />
    <text
       x="240.99324"
       y="57.288837"
       transform="matrix(0.99980487,0.0197539,-0.0197539,0.99980487,0,0)"
       id="text8133"
       xml:space="preserve"
       style="font-size:40px;font-style:italic;font-variant:normal;font-weight:normal;font-stretch:normal;text-align:start;line-height:125%;letter-spacing:0px;word-spacing:0px;writing-mode:lr-tb;text-anchor:start;fill:#000000;fill-opacity:1;stroke:none;font-family:Sans;-inkscape-font-specification:Sans Italic"><tspan
         x="240.99324"
         y="57.288837"
         id="tspan8135"
         style="font-size:40px;font-style:italic;font-variant:normal;font-weight:normal;font-stretch:normal;text-align:start;line-height:125%;writing-mode:lr-tb;text-anchor:start;font-family:Sans;-inkscape-font-specification:Sans Italic">Application Deploy</tspan></text>
    <text
       x="81.333336"
       y="142.33333"
       id="text8139"
       xml:space="preserve"
       style="font-size:23.33333397px;font-style:normal;font-variant:normal;font-weight:500;font-stretch:normal;text-align:start;line-height:125%;letter-spacing:0px;word-spacing:0px;writing-mode:lr-tb;text-anchor:start;fill:#000000;fill-opacity:1;stroke:none;font-family:Cursor;-inkscape-font-specification:Cursor Medium"><tspan
         x="81.333336"
         y="142.33333"
         id="tspan8141"
         style="font-size:23.33333397px;font-style:normal;font-variant:normal;font-weight:500;font-stretch:normal;text-align:start;line-height:125%;writing-mode:lr-tb;text-anchor:start;font-family:Cursor;-inkscape-font-specification:Cursor Medium">Find</tspan><tspan
         x="81.333336"
         y="171.5"
         id="tspan8143"
         style="font-size:23.33333397px;font-style:normal;font-variant:normal;font-weight:500;font-stretch:normal;text-align:start;line-height:125%;writing-mode:lr-tb;text-anchor:start;font-family:Cursor;-inkscape-font-specification:Cursor Medium">Extensions</tspan></text>
    <text
       x="249.59737"
       y="142.17281"
       id="text8149"
       xml:space="preserve"
       style="font-size:20px;font-style:normal;font-variant:normal;font-weight:normal;font-stretch:normal;text-align:start;line-height:125%;letter-spacing:0px;word-spacing:0px;writing-mode:lr-tb;text-anchor:start;fill:#f9f9f9;fill-opacity:1;stroke:none;font-family:ChunkFive;-inkscape-font-specification:ChunkFive"><tspan
         x="249.59737"
         y="142.17281"
         id="tspan8481">Before Bean</tspan><tspan
         x="249.59737"
         y="167.17281"
         id="tspan8483">Discovery</tspan></text>
    <text
       x="146"
       y="559.87756"
       id="text8167"
       xml:space="preserve"
       style="font-size:40px;font-style:italic;font-variant:normal;font-weight:normal;font-stretch:normal;text-align:start;line-height:125%;letter-spacing:0px;word-spacing:0px;writing-mode:lr-tb;text-anchor:start;fill:#000000;fill-opacity:1;stroke:none;font-family:Sans;-inkscape-font-specification:Sans Italic"><tspan
         x="146"
         y="559.87756"
         id="tspan8169">Application Terminates</tspan></text>
    <text
       x="446.93878"
       y="139.79591"
       id="text8171"
       xml:space="preserve"
       style="font-size:23.33333397px;font-style:normal;font-variant:normal;font-weight:500;font-stretch:normal;text-align:start;line-height:125%;letter-spacing:0px;word-spacing:0px;writing-mode:lr-tb;text-anchor:start;fill:#000000;fill-opacity:1;stroke:none;font-family:Cursor;-inkscape-font-specification:Cursor Medium"><tspan
         x="446.93878"
         y="139.79591"
         id="tspan8173">Scan </tspan><tspan
         x="446.93878"
         y="168.96259"
         id="tspan8267">Archive</tspan></text>
    <text
       x="608.13"
       y="201.5638"
       transform="matrix(0.99428906,-0.10672048,0.10672048,0.99428906,0,0)"
       id="text8175"
       xml:space="preserve"
       style="font-size:16px;font-style:normal;font-variant:normal;font-weight:normal;font-stretch:normal;text-align:start;line-height:125%;letter-spacing:0px;word-spacing:0px;writing-mode:lr-tb;text-anchor:start;fill:#f9f9f9;fill-opacity:1;stroke:none;font-family:ChunkFive;-inkscape-font-specification:ChunkFive"><tspan
         x="608.13"
         y="201.5638"
         id="tspan8177">Process </tspan><tspan
         x="608.13"
         y="221.5638"
         id="tspan8269">Annotated </tspan><tspan
         x="608.13"
         y="241.5638"
         id="tspan8271">Type</tspan></text>
    <text
       x="612.11053"
       y="238.47427"
       id="text8179"
       xml:space="preserve"
       style="font-size:20px;font-style:normal;font-variant:normal;font-weight:normal;font-stretch:normal;text-align:start;line-height:125%;letter-spacing:0px;word-spacing:0px;writing-mode:lr-tb;text-anchor:start;fill:#f9f9f9;fill-opacity:1;stroke:none;font-family:ChunkFive;-inkscape-font-specification:ChunkFive"><tspan
         x="612.11053"
         y="238.47427"
         id="tspan8183">After Type</tspan><tspan
         x="612.11053"
         y="263.47427"
         id="tspan8185">Discovery</tspan></text>
    <text
       x="424.75113"
       y="287.88773"
       transform="matrix(0.99287212,-0.11918451,0.11918451,0.99287212,0,0)"
       id="text8189"
       xml:space="preserve"
       style="font-size:16px;font-style:normal;font-variant:normal;font-weight:normal;font-stretch:normal;text-align:start;line-height:125%;letter-spacing:0px;word-spacing:0px;writing-mode:lr-tb;text-anchor:start;fill:#f9f9f9;fill-opacity:1;stroke:none;font-family:ChunkFive;-inkscape-font-specification:ChunkFive"><tspan
         x="424.75113"
         y="287.88773"
         id="tspan8191">Process</tspan><tspan
         x="424.75113"
         y="307.88773"
         id="tspan8193">Injection</tspan><tspan
         x="424.75113"
         y="327.88773"
         id="tspan8195">Point</tspan></text>
    <text
       x="278.86166"
       y="230.81316"
       id="text8197"
       xml:space="preserve"
       style="font-size:16px;font-style:normal;font-variant:normal;font-weight:normal;font-stretch:normal;text-align:start;line-height:125%;letter-spacing:0px;word-spacing:0px;writing-mode:lr-tb;text-anchor:start;fill:#f9f9f9;fill-opacity:1;stroke:none;font-family:ChunkFive;-inkscape-font-specification:ChunkFive"><tspan
         x="278.86166"
         y="230.81316"
         id="tspan8199">Process </tspan><tspan
         x="278.86166"
         y="250.81316"
         id="tspan8277">Injection</tspan><tspan
         x="278.86166"
         y="270.81317"
         id="tspan8201">Target</tspan></text>
    <text
       x="91.836708"
       y="238.71243"
       id="text8203"
       xml:space="preserve"
       style="font-size:20px;font-style:normal;font-variant:normal;font-weight:normal;font-stretch:normal;text-align:start;line-height:125%;letter-spacing:0px;word-spacing:0px;writing-mode:lr-tb;text-anchor:start;fill:#f9f9f9;fill-opacity:1;stroke:none;font-family:ChunkFive;-inkscape-font-specification:ChunkFive"><tspan
         x="91.836708"
         y="238.71243"
         id="tspan8205">Process</tspan><tspan
         x="91.836708"
         y="263.71243"
         id="tspan8207">Producer</tspan></text>
    <text
       x="131.07254"
       y="314.96863"
       transform="matrix(0.99619775,0.08712083,-0.08712083,0.99619775,0,0)"
       id="text8209"
       xml:space="preserve"
       style="font-size:16px;font-style:normal;font-variant:normal;font-weight:normal;font-stretch:normal;text-align:start;line-height:125%;letter-spacing:0px;word-spacing:0px;writing-mode:lr-tb;text-anchor:start;fill:#f9f9f9;fill-opacity:1;stroke:none;font-family:ChunkFive;-inkscape-font-specification:ChunkFive"><tspan
         x="131.07254"
         y="314.96863"
         id="tspan8211">Process</tspan><tspan
         x="131.07254"
         y="334.96863"
         id="tspan8213">Bean</tspan><tspan
         x="131.07254"
         y="354.96863"
         id="tspan8215">Attributes</tspan></text>
    <text
       x="265.30612"
       y="338.77551"
       id="text8217"
       xml:space="preserve"
       style="font-size:20px;font-style:normal;font-variant:normal;font-weight:normal;font-stretch:normal;text-align:start;line-height:125%;letter-spacing:0px;word-spacing:0px;writing-mode:lr-tb;text-anchor:start;fill:#f9f9f9;fill-opacity:1;stroke:none;font-family:ChunkFive;-inkscape-font-specification:ChunkFive"><tspan
         x="265.30612"
         y="338.77551"
         id="tspan8219">Process</tspan><tspan
         x="265.30612"
         y="363.77551"
         id="tspan8221">Bean</tspan></text>
    <text
       x="419.53375"
       y="374.28833"
       transform="matrix(0.99536585,-0.09616043,0.09616043,0.99536585,0,0)"
       id="text8223"
       xml:space="preserve"
       style="font-size:16px;font-style:normal;font-variant:normal;font-weight:normal;font-stretch:normal;text-align:start;line-height:125%;letter-spacing:0px;word-spacing:0px;writing-mode:lr-tb;text-anchor:start;fill:#f9f9f9;fill-opacity:1;stroke:none;font-family:ChunkFive;-inkscape-font-specification:ChunkFive"><tspan
         x="419.53375"
         y="374.28833"
         id="tspan8225">Process</tspan><tspan
         x="419.53375"
         y="394.28833"
         id="tspan8227">Observer</tspan><tspan
         x="419.53375"
         y="414.28833"
         id="tspan8229">Method</tspan></text>
    <text
       x="624.16327"
       y="328.61224"
       id="text8231"
       xml:space="preserve"
       style="font-size:16px;font-style:normal;font-variant:normal;font-weight:normal;font-stretch:normal;text-align:start;line-height:125%;letter-spacing:0px;word-spacing:0px;writing-mode:lr-tb;text-anchor:start;fill:#f9f9f9;fill-opacity:1;stroke:none;font-family:ChunkFive;-inkscape-font-specification:ChunkFive"><tspan
         x="624.16327"
         y="328.61224"
         id="tspan8233">After</tspan><tspan
         x="624.16327"
         y="348.61224"
         id="tspan8235">Bean </tspan><tspan
         x="624.16327"
         y="368.61224"
         id="tspan8273">Discovery</tspan><tspan
         x="624.16327"
         y="388.61224"
         id="tspan8237" /></text>
    <text
       x="614.32654"
       y="427.63266"
       id="text8239"
       xml:space="preserve"
       style="font-size:16px;font-style:normal;font-variant:normal;font-weight:normal;font-stretch:normal;text-align:start;line-height:125%;letter-spacing:0px;word-spacing:0px;writing-mode:lr-tb;text-anchor:start;fill:#f9f9f9;fill-opacity:1;stroke:none;font-family:ChunkFive;-inkscape-font-specification:ChunkFive"><tspan
         x="614.32654"
         y="427.63266"
         id="tspan8241">After</tspan><tspan
         x="614.32654"
         y="447.63266"
         id="tspan8243">Deployment</tspan><tspan
         x="614.32654"
         y="467.63266"
         id="tspan8245">Validation</tspan></text>
    <text
       x="426.61224"
       y="436.53061"
       id="text8247"
       xml:space="preserve"
       style="font-size:23.33333397px;font-style:normal;font-variant:normal;font-weight:500;font-stretch:normal;text-align:start;line-height:125%;letter-spacing:0px;word-spacing:0px;writing-mode:lr-tb;text-anchor:start;fill:#000000;fill-opacity:1;stroke:none;font-family:Cursor;-inkscape-font-specification:Cursor Medium"><tspan
         x="426.61224"
         y="436.53061"
         id="tspan8249">Application</tspan><tspan
         x="426.61224"
         y="465.69727"
         id="tspan8251">Runs</tspan></text>
    <text
       x="237.68608"
       y="452.68021"
       transform="matrix(0.99678708,-0.08009695,0.08009695,0.99678708,0,0)"
       id="text8253"
       xml:space="preserve"
       style="font-size:16px;font-style:normal;font-variant:normal;font-weight:500;font-stretch:normal;text-align:start;line-height:125%;letter-spacing:0px;word-spacing:0px;writing-mode:lr-tb;text-anchor:start;fill:#000000;fill-opacity:1;stroke:none;font-family:Cursor;-inkscape-font-specification:Cursor Medium"><tspan
         x="237.68608"
         y="452.68021"
         id="tspan8255">Application</tspan><tspan
         x="237.68608"
         y="472.68021"
         id="tspan8257">Shutdown</tspan><tspan
         x="237.68608"
         y="492.68021"
         id="tspan8259">Started</tspan></text>
    <text
       x="88.775513"
       y="431.63266"
       id="text8261"
       xml:space="preserve"
       style="font-size:20px;font-style:normal;font-variant:normal;font-weight:normal;font-stretch:normal;text-align:start;line-height:125%;letter-spacing:0px;word-spacing:0px;writing-mode:lr-tb;text-anchor:start;fill:#f9f9f9;fill-opacity:1;stroke:none;font-family:ChunkFive;-inkscape-font-specification:ChunkFive"><tspan
         x="88.775513"
         y="431.63266"
         id="tspan8263">Before</tspan><tspan
         x="88.775513"
         y="456.63266"
         id="tspan8265">Shutdown</tspan></text>
  </g>
</svg>
